<?xml version="1.0" encoding="utf-8"?>
<svg version="1.1" xmlns="http://www.w3.org/2000/svg" xmlns:xlink="http://www.w3.org/1999/xlink" height="28.61926142369657" width="28.69381307369622">
  <defs>
    <path id="path-0" opacity="1" fill-rule="evenodd" d="M8.194386396848255,14.992868936848293 C7.501206726848254,15.649455466848293 6.810080826848254,16.439274196848295 6.651987216848254,16.755522836848293 C6.101130376848254,17.86235757684829 5.880787636848254,20.05140583684829 7.454034796848254,21.648426236848294 C8.527103936848253,22.738473786848296 10.869347256848254,22.431827966848296 11.860889576848255,21.940523166848294 C13.420916176848255,21.16495545684829 16.776736096848254,16.953611566848295 16.776736096848254,16.953611566848295 C18.168200496848254,15.630781776848293 17.628360776848254,14.056144296848293 16.153166136848252,12.563204416848293 "/>
    <path id="path-1" opacity="1" fill-rule="evenodd" d="M20.26255822684833,13.630869066848254 C20.98614051684833,13.009489906848254 21.713797356848332,12.254774226848253 21.88648422684833,11.946555336848254 C22.49022332684833,10.868818386848254 22.81302543684833,8.692080706848254 21.320203376848333,7.022315876848254 C20.301118206848333,5.880787636848254 17.950061176848333,6.069923196848254 16.936484576848333,6.513104746848255 C15.341203146848333,7.2080939968482545 11.787074756848334,11.248208646848255 11.787074756848334,11.248208646848255 C10.332812676848334,12.500532276848254 10.795532436848333,14.099790966848255 12.200217396848334,15.664356146848254 "/>
  </defs>
  <g opacity="1">
    <g opacity="1">
      <use xlink:href="#path-0" fill="rgb(0,0,0)" fill-opacity="0"/>
      <use xlink:href="#path-0" fill-opacity="0" stroke="rgb(170,117,255)" stroke-opacity="1" stroke-width="2.5"/>
    </g>
    <g opacity="1">
      <use xlink:href="#path-1" fill="rgb(0,0,0)" fill-opacity="0"/>
      <use xlink:href="#path-1" fill-opacity="0" stroke="rgb(170,117,255)" stroke-opacity="1" stroke-width="2.5"/>
    </g>
  </g>
</svg>