<?xml version="1.0" encoding="utf-8"?>
<svg version="1.1" xmlns="http://www.w3.org/2000/svg" xmlns:xlink="http://www.w3.org/1999/xlink" height="14" width="14">
  <defs>
    <path id="path-0" opacity="1" fill-rule="evenodd" d="M0.9,6.099999999999909 L13.1,6.099999999999909 C13.5967235220446,6.099999999999909 14.000000000000002,6.503276477955309 14,6.999999999999909 C14.000000000000002,7.496723522044509 13.5967235220446,7.89999999999991 13.100000000000001,7.89999999999991 L0.9,7.899999999999909 C0.4032764779554001,7.89999999999991 1.1102230246251565e-16,7.496723522044509 0,6.999999999999909 C0,6.503276477955309 0.40327647795539984,6.099999999999909 0.9,6.099999999999909Z"/>
    <path id="path-1" opacity="1" fill-rule="evenodd" d="M0.9,6.099999999999909 L13.1,6.099999999999909 C13.5967235220446,6.099999999999909 14.000000000000002,6.503276477955309 14,6.999999999999909 C14.000000000000002,7.496723522044509 13.5967235220446,7.89999999999991 13.100000000000001,7.89999999999991 L0.9,7.899999999999909 C0.4032764779554001,7.89999999999991 1.1102230246251565e-16,7.496723522044509 0,6.999999999999909 C0,6.503276477955309 0.40327647795539984,6.099999999999909 0.9,6.099999999999909Z"/>
  </defs>
  <g opacity="1">
    <g opacity="1">
      <use xlink:href="#path-0" fill="rgb(255,255,255)" fill-opacity="1"/>
    </g>
    <g transform="translate(7, 6.999999999999909) rotate(90.00003218077504) translate(-7, -6.999999999999909)" opacity="1">
      <use xlink:href="#path-1" fill="rgb(255,255,255)" fill-opacity="1"/>
    </g>
  </g>
</svg>