<?xml version="1.0" encoding="utf-8"?>
<svg version="1.1" xmlns="http://www.w3.org/2000/svg" xmlns:xlink="http://www.w3.org/1999/xlink" height="17.028594970703125" width="16.666929880778298">
  <defs>
    <path id="path-0" opacity="1" fill-rule="evenodd" d="M13.202673594156545,0.136627197265625 L16.533119201659797,3.53778076171875 C16.711513519286747,3.719970703125 16.711513519286747,4.023651123046875 16.533119201659797,4.20587158203125 L15.581563313801723,5.1776123046875 C15.403168996174772,5.359832763671875 15.105785369872688,5.359832763671875 14.927391052245735,5.1776123046875 L11.596945444742484,1.7764892578125 C11.418551127115531,1.594268798828125 11.418551127115531,1.29058837890625 11.596945444742484,1.1083984375 L12.548501332600555,0.136627197265625 C12.78642018636032,-0.045562744140625 13.024279276529592,-0.045562744140625 13.202673594156545,0.136627197265625 L13.202673594156545,0.136627197265625ZM11.002297719319307,2.748260498046875 L13.975835164387663,5.78497314453125 C14.213754018147428,6.027923583984375 14.213754018147428,6.45306396484375 13.975835164387663,6.756744384765625 L4.4009310404456174,16.535003662109375 C4.2819417317704875,16.656494140625 4.163012186685852,16.71722412109375 3.984617869058899,16.71722412109375 L0.7136370340979654,17.020904541015625 C0.35684839884405956,17.081634521484375 -3.410605131648481e-13,16.7779541015625 -3.410605131648481e-13,16.292083740234375 L0.2973836263017419,12.95166015625 C0.2973836263017419,12.76947021484375 0.35684839884405956,12.64801025390625 0.4757779439286948,12.526519775390625 L10.050741831461236,2.748260498046875 C10.348065694172824,2.444580078125 10.764378865559543,2.444580078125 11.002297719319307,2.748260498046875 L11.002297719319307,2.748260498046875ZM11.180632273355766,6.45306396484375 L3.3303858439124157,14.47003173828125 C3.270921071370098,14.47003173828125 3.2114562988277804,14.53076171875 3.2114562988277804,14.53076171875 L2.6761538187659317,14.591522216796875 L2.6166890462236143,14.591522216796875 C2.497759501138979,14.591522216796875 2.438294728596661,14.47003173828125 2.438294728596661,14.34857177734375 L2.497759501138979,13.801971435546875 C2.497759501138979,13.7412109375 2.497759501138979,13.7412109375 2.5572242736812965,13.68048095703125 L10.40753046671514,5.66351318359375 C10.466995239257459,5.602783203125 10.645389556884412,5.602783203125 10.70485432942673,5.66351318359375 L11.180632273355766,6.149383544921875 C11.240097045898084,6.21014404296875 11.240097045898084,6.392333984375 11.180632273355766,6.45306396484375 L11.180632273355766,6.45306396484375Z"/>
  </defs>
  <g opacity="1">
    <use xlink:href="#path-0" fill="rgb(102,117,255)" fill-opacity="1"/>
  </g>
</svg>