<?xml version="1.0" encoding="utf-8"?>
<svg version="1.1" xmlns="http://www.w3.org/2000/svg" xmlns:xlink="http://www.w3.org/1999/xlink" height="26" width="26">
  <defs>
    <path id="path-0" opacity="1" fill-rule="evenodd" d="M13,0 C20.174895318422003,0 26,5.825104681578 26,13 C26,20.174895318422 20.174895318422003,26 13,26 C5.825104681578002,26 1.7763568394002505e-15,20.174895318422003 0,13 C0,5.825104681578002 5.825104681577997,1.7763568394002505e-15 12.999999999999998,0 L13,0Z"/>
    <path id="path-1" opacity="1" fill-rule="evenodd" d="M7.333333333332727,11.833333333333343 L18.999999999999392,11.833333333333343 C19.64390086190906,11.833333333333343 20.16666666666606,12.356099138090343 20.16666666666606,13.00000000000001 C20.16666666666606,13.643900861909676 19.64390086190906,14.166666666666677 18.99999999999939,14.166666666666677 L7.333333333332727,14.166666666666677 C6.689432471423061,14.166666666666677 6.16666666666606,13.643900861909676 6.16666666666606,13.00000000000001 C6.16666666666606,12.356099138090343 6.689432471423061,11.833333333333343 7.333333333332727,11.833333333333343Z"/>
    <path id="path-2" opacity="1" fill-rule="evenodd" d="M7.333333333332727,11.833333333333343 L18.999999999999392,11.833333333333343 C19.64390086190906,11.833333333333343 20.16666666666606,12.356099138090343 20.16666666666606,13.00000000000001 C20.16666666666606,13.643900861909676 19.64390086190906,14.166666666666677 18.99999999999939,14.166666666666677 L7.333333333332727,14.166666666666677 C6.689432471423061,14.166666666666677 6.16666666666606,13.643900861909676 6.16666666666606,13.00000000000001 C6.16666666666606,12.356099138090343 6.689432471423061,11.833333333333343 7.333333333332727,11.833333333333343Z"/>
  </defs>
  <g opacity="1">
    <g opacity="1">
      <use xlink:href="#path-0" fill="rgb(232,229,255)" fill-opacity="1"/>
    </g>
    <g opacity="1">
      <use xlink:href="#path-1" fill="rgb(120,120,255)" fill-opacity="1"/>
    </g>
    <g transform="translate(13.16666666666606, 13.00000000000001) rotate(90.00003218077504) translate(-13.16666666666606, -13.00000000000001)" opacity="1">
      <use xlink:href="#path-2" fill="rgb(120,120,255)" fill-opacity="1"/>
    </g>
  </g>
</svg>