<?xml version="1.0" encoding="utf-8"?>
<svg version="1.1" xmlns="http://www.w3.org/2000/svg" xmlns:xlink="http://www.w3.org/1999/xlink" height="14.495689014324398" width="14.495689014323943">
  <defs>
    <path id="path-0" opacity="1" fill-rule="evenodd" d="M7.247844507162654,-1.752155492837801 C7.937738287780154,-1.752155492837801 8.497844507162654,-1.192049273455301 8.497844507162654,-0.5021554928378009 L8.497844507162654,14.997844507162199 C8.497844507162654,15.687738287779698 7.937738287780154,16.2478445071622 7.247844507162654,16.2478445071622 C6.557950726545154,16.2478445071622 5.997844507162654,15.687738287779698 5.997844507162654,14.997844507162199 L5.997844507162654,-0.5021554928378009 C5.997844507162654,-1.1920492734553008 6.557950726545154,-1.7521554928378007 7.247844507162654,-1.752155492837801 L7.247844507162654,-1.752155492837801Z"/>
    <path id="path-1" opacity="1" fill-rule="evenodd" d="M7.2478445071624265,-1.7521554928379146 C7.9377382877799265,-1.7521554928379146 8.497844507162426,-1.1920492734554147 8.497844507162426,-0.5021554928379146 L8.497844507162426,14.997844507162085 C8.497844507162426,15.687738287779585 7.9377382877799265,16.247844507162085 7.2478445071624265,16.247844507162085 C6.557950726544926,16.247844507162085 5.9978445071624265,15.687738287779585 5.9978445071624265,14.997844507162085 L5.9978445071624265,-0.5021554928379146 C5.9978445071624265,-1.1920492734554144 6.557950726544926,-1.7521554928379144 7.2478445071624265,-1.7521554928379146 L7.2478445071624265,-1.7521554928379146Z"/>
  </defs>
  <g opacity="1">
    <g transform="translate(7.247844507162654, 7.247844507162199) rotate(-45.00001609038752) translate(-7.247844507162654, -7.247844507162199)" opacity="1">
      <use xlink:href="#path-0" fill="rgb(202,208,212)" fill-opacity="1"/>
    </g>
    <g transform="translate(7.2478445071624265, 7.247844507162085) rotate(45.00001609038752) translate(-7.2478445071624265, -7.247844507162085)" opacity="1">
      <use xlink:href="#path-1" fill="rgb(202,208,212)" fill-opacity="1"/>
    </g>
  </g>
</svg>