<?xml version="1.0" encoding="utf-8"?>
<svg version="1.1" xmlns="http://www.w3.org/2000/svg" xmlns:xlink="http://www.w3.org/1999/xlink" height="22.056945164217723" width="22.056945164217723">
  <defs>
    <path id="path-0" opacity="1" fill-rule="evenodd" d="M5.836164889801182,6.278472582108861 L5.836164889801233,17.52847258210887 C5.8361648898012355,18.080757331939658 6.2838801399704405,18.52847258210886 6.836164889801232,18.52847258210886 L15.216164889801187,18.52847258210886 C15.768449639631994,18.52847258210886 16.216164889801206,18.080757331939633 16.216164889801185,17.528472582108826 L16.21616488980078,6.278472582108861 L5.836164889801182,6.278472582108861Z"/>
    <path id="path-1" opacity="1" fill-rule="evenodd" d="M9.528472582109089,8.903472582108861 C9.94240885047959,8.903472582108861 10.278472582109089,9.23953631373836 10.278472582109089,9.653472582108861 L10.278472582109089,15.153472582108861 C10.278472582109089,15.56740885047936 9.94240885047959,15.903472582108861 9.528472582109089,15.903472582108861 C9.114536313738588,15.903472582108861 8.778472582109089,15.56740885047936 8.778472582109089,15.153472582108861 L8.778472582109089,9.653472582108861 C8.778472582109089,9.23953631373836 9.114536313738588,8.903472582108861 9.528472582109089,8.903472582108861 L9.528472582109089,8.903472582108861Z"/>
    <path id="path-2" opacity="1" fill-rule="evenodd" d="M12.990011043647542,8.903472582108861 C13.403947312018042,8.903472582108861 13.740011043647542,9.23953631373836 13.740011043647542,9.653472582108861 L13.740011043647542,15.153472582108861 C13.740011043647542,15.56740885047936 13.403947312018042,15.903472582108861 12.990011043647542,15.903472582108861 C12.576074775277041,15.903472582108861 12.240011043647542,15.56740885047936 12.240011043647542,15.153472582108861 L12.240011043647542,9.653472582108861 C12.240011043647542,9.23953631373836 12.576074775277041,8.903472582108861 12.990011043647542,8.903472582108861 L12.990011043647542,8.903472582108861Z"/>
    <path id="path-3" opacity="1" fill-rule="evenodd" d="M9.691934120570295,3.5284725821088614 C9.139649370739502,3.5284725821088614 8.691934120570295,3.9761878322780677 8.691934120570295,4.528472582108861 L8.691934120570295,6.078472582108861 L13.365011043647245,6.078472582108861 L13.365011043647245,4.528472582108861 C13.365011043647245,3.9761878322780677 12.917295793478038,3.5284725821088614 12.365011043647245,3.5284725821088614 L9.691934120570295,3.5284725821088614Z"/>
    <path id="path-4" opacity="1" fill-rule="evenodd" d="M4.278472582108861,5.528472582108975 L17.77847258210886,5.528472582108975 C18.19240885047936,5.528472582108975 18.52847258210886,5.864536313738475 18.52847258210886,6.278472582108975 C18.52847258210886,6.692408850479476 18.19240885047936,7.028472582108975 17.77847258210886,7.028472582108975 L4.278472582108861,7.028472582108975 C3.8645363137383617,7.028472582108975 3.5284725821088614,6.692408850479476 3.5284725821088614,6.278472582108975 C3.5284725821088614,5.864536313738475 3.8645363137383613,5.528472582108975 4.278472582108861,5.528472582108975Z"/>
  </defs>
  <g opacity="1">
    <g opacity="1">
      <use xlink:href="#path-0" fill-opacity="0" stroke="rgb(255,255,255)" stroke-opacity="1" stroke-width="1.5" stroke-linecap="butt" stroke-linejoin="miter"/>
    </g>
    <g opacity="1">
      <g opacity="1">
        <use xlink:href="#path-1" fill="rgb(255,255,255)" fill-opacity="1"/>
      </g>
      <g opacity="1">
        <use xlink:href="#path-2" fill="rgb(255,255,255)" fill-opacity="1"/>
      </g>
    </g>
    <g opacity="1">
      <use xlink:href="#path-3" fill-opacity="0" stroke="rgb(255,255,255)" stroke-opacity="1" stroke-width="1.5" stroke-linecap="butt" stroke-linejoin="miter"/>
    </g>
    <g opacity="1">
      <use xlink:href="#path-4" fill="rgb(255,255,255)" fill-opacity="1"/>
    </g>
  </g>
</svg>