<svg xmlns="http://www.w3.org/2000/svg" viewBox="0 0 166 164">
  <title>Asset 18</title>
  <g id="Layer_2" data-name="Layer 2">
    <g id="Layer_1-2" data-name="Layer 1">
      <circle cx="116.5" cy="112.5" r="49.5" style="fill: #defcff"/>
      <circle cx="83" cy="81.5" r="21.5" style="fill: none;stroke: #2161ff;stroke-miterlimit: 10;stroke-width: 12px"/>
      <polygon points="115 31 127 18 146 38 134 50 141 68 159 68 159 96 141 96 134 113 146 127 127 146 114 133 96 141 96 158 68 158 69 141 51 133 39 146 18 126 31 114 25 96 6 95 6 68 25 68 31 50 19 38 39 18 51 31 69 23 69 6 97 6 97 24 115 31" style="fill: none;stroke: #2161ff;stroke-linecap: round;stroke-linejoin: round;stroke-width: 12px"/>
    </g>
  </g>
</svg>
