<?xml version="1.0" encoding="utf-8"?>
<svg version="1.1" xmlns="http://www.w3.org/2000/svg" xmlns:xlink="http://www.w3.org/1999/xlink" height="4.513003349304199" width="7.8990678787231445">
  <defs>
    <path id="path-0" opacity="1" fill-rule="evenodd" d="M0.16077423095703125,0.9440279006958008 L3.5689735412597656,4.352229118347168 C3.7833404541015625,4.566596031188965 4.130897521972656,4.566596031188965 4.3452606201171875,4.352229118347168 C4.559627532958984,4.137862205505371 4.559627532958984,3.79030704498291 4.3452606201171875,3.575942039489746 L0.9370613098144531,0.1677408218383789 C0.7226943969726562,-0.04662609100341797 0.3751373291015625,-0.04662609100341797 0.16077423095703125,0.1677408218383789 C-0.053592681884765625,0.38210582733154297 -0.053592681884765625,0.7296628952026367 0.16077423095703125,0.9440279006958008Z"/>
    <path id="path-1" opacity="1" fill-rule="evenodd" d="M3.5538063049316406,0.9370603561401367 L6.962005615234375,4.345261573791504 C7.176372528076172,4.559626579284668 7.52392578125,4.559626579284668 7.738292694091797,4.345261573791504 C7.952659606933594,4.13089656829834 7.952659606933594,3.783339500427246 7.738292694091797,3.568972587585449 L4.3300933837890625,0.16077327728271484 C4.115726470947266,-0.05359363555908203 3.768169403076172,-0.05359363555908203 3.5538063049316406,0.16077327728271484 C3.3394393920898438,0.3751382827758789 3.3394393920898438,0.7226953506469727 3.5538063049316406,0.9370603561401367Z"/>
  </defs>
  <g opacity="1">
    <g>
      <use xlink:href="#path-0" fill="rgb(176,185,189)" fill-opacity="1"/>
    </g>
    <g transform="translate(5.646049499511719, 2.2530174255371094) rotate(-90.00003218077504) translate(-5.646049499511719, -2.2530174255371094)">
      <use xlink:href="#path-1" fill="rgb(176,185,189)" fill-opacity="1"/>
    </g>
  </g>
</svg>