<svg viewBox="0 0 138.7 123.84" xmlns="http://www.w3.org/2000/svg"><path d="m84 20.48a11.88 11.88 0 0 1 1.23-5.22h-78.39c-3.77.01-6.84 2.49-6.84 5.6s3.07 5.59 6.84 5.59h78.74a12 12 0 0 1 -1.58-5.97z" fill="#a7b6c4"/><path d="m131.86 15.27h-14.46a11.7 11.7 0 0 1 -.4 11.18h14.87c3.78 0 6.84-2.5 6.84-5.59s-3.07-5.59-6.85-5.59z" fill="#a7b6c4"/><ellipse cx="100.15" cy="20.65" fill="none" rx="16.65" ry="15.69" stroke="#a7b6c4" stroke-width="9.907415"/><path d="m131.86 56.55h-83a11.29 11.29 0 0 1 -.22 11.18h83.26c3.78 0 6.84-2.5 6.84-5.59s-3.1-5.59-6.88-5.59z" fill="#a7b6c4"/><path d="m16.88 61.95a11.48 11.48 0 0 1 1.37-5.4h-11.41c-3.77 0-6.84 2.45-6.84 5.59s3.07 5.59 6.84 5.59h11.64a11.5 11.5 0 0 1 -1.6-5.78z" fill="#a7b6c4"/><ellipse cx="33.54" cy="61.92" fill="none" rx="16.65" ry="15.69" stroke="#a7b6c4" stroke-width="9.907415"/><path d="m83.5 103.11a11.57 11.57 0 0 1 1.82-6.11h-78.48c-3.77 0-6.84 2.46-6.84 5.55s3.07 5.59 6.84 5.59h77.84a11.41 11.41 0 0 1 -1.18-5.03z" fill="#a7b6c4"/><path d="m131.86 97h-16.86a11.29 11.29 0 0 1 .62 11.18h16.24c3.78 0 6.84-2.5 6.84-5.59s-3.06-5.59-6.84-5.59z" fill="#a7b6c4"/><ellipse cx="100.15" cy="103.2" fill="none" rx="16.65" ry="15.69" stroke="#a7b6c4" stroke-width="9.907415"/></svg>