<svg height="14" width="14" xmlns="http://www.w3.org/2000/svg"><g fill="#a7b6c4" fill-rule="evenodd"><path d="m7.6666713 3.40764239h-1.59223906v-1.80879596h-4.48219318v10.80028839h4.48219318v-1.76236481h1.59223906v1.76438356c0 .99524153-.60312085 1.59884643-1.59223906 1.59884643h-4.48219318c-.9891182 0-1.59223906-.6036049-1.59223906-1.59884643v-10.80028839c0-.99524153.60312086-1.60086518 1.59223906-1.60086518h4.48219318c.99112861 0 1.59223906.60562365 1.59223906 1.59884643z"/><path d="m11.43818707 6.33482336h-6.26642571c-.44630944 0-.80416115.16049027-.80416115.60562365s.36086732.60562365.80416115.60562365h6.28150373l-1.32083468 1.53828406c-.31382438.31726245-.31382438.829385 0 1.14664744.31563325.31694305.72575543.1150685 1.04138868-.20187455l2.5321024-2.44167267c.2194154-.21919806.29407851-.54538925.19199348-.83878875-.02190434-.17738858-.10180385-.34246579-.22717553-.46935833l-2.535118-2.44369142c-.31563325-.31694304-.72575543-.51881759-1.04138868-.20187455-.15223788.15162119-.23786952.35801439-.23786952.57332372s.08563164.42170253.23786952.57332372l1.34495951 1.45450613z"/></g></svg>