<?xml version="1.0" encoding="utf-8"?>
<svg version="1.1" xmlns="http://www.w3.org/2000/svg" xmlns:xlink="http://www.w3.org/1999/xlink" height="49" width="53">
  <defs>
    <path id="path-0" opacity="1" fill-rule="evenodd" d="M21,10 L43,10 C48.51915024494,10 53,14.48084975506 53,20 L53,39 C53,44.51915024494 48.51915024494,49 43,49 L21,49 C15.480849755060001,49 11.000000000000002,44.51915024494 11,39 L11,20 C11,14.480849755060001 15.480849755059998,10.000000000000002 21,10Z"/>
    <linearGradient id="linearGradient-1" x1="0.94" y1="0.08" x2="0.18" y2="0.94">
      <stop offset="0" stop-color="rgb(146,106,255)" stop-opacity="1"/>
      <stop offset="1" stop-color="rgb(117,222,255)" stop-opacity="1"/>
    </linearGradient>
    <rect id="rect-2" opacity="1" x="0" y="0" width="36" height="34"/>
    <linearGradient id="linearGradient-3" x1="1.01" y1="0.95" x2="0.09" y2="0.01">
      <stop offset="0" stop-color="rgb(64,127,255)" stop-opacity="0.49"/>
      <stop offset="1" stop-color="rgb(255,171,237)" stop-opacity="1"/>
    </linearGradient>
    <ellipse id="ellipse-4" opacity="1" rx="4" ry="4" cx="32.2783288079404" cy="30.95052122804006"/>
    <mask id="mask-5" maskUnits="userSpaceOnUse" maskContentUnits="userSpaceOnUse">
      <rect opacity="1" x="0" y="0" width="53" height="49" fill="black"/>
      <use xlink:href="#ellipse-4" fill="white"/>
    </mask>
    <path id="path-6" opacity="1" fill-rule="evenodd" d="M26.30491297177236,22.5891248894786 C26.694795467044102,21.654316460301366 27.721960538817953,21.158545348326715 28.69639897559557,21.434851143254207 L30.897561207938743,22.058999224258894 C31.790212907035478,22.31211407277404 32.743093885259114,22.24703389121052 33.59304229951942,21.874902361324214 L35.13332880794038,21.20052122804007 C36.568319992687684,20.5722413748232 38.20703030843471,21.485164714323723 38.42803930635741,23.036000068930356 L38.72615320836776,25.127885844092663 C38.89100378926659,26.284653720008556 39.553411194673224,27.311507396784304 40.53931748071997,27.938624951878367 L41.73711257014424,28.70052122804006 C43.09237308296834,29.562578475616505 43.20764455459708,31.497890580705224 41.964295093791975,32.51472678877168 L40.453616090282196,33.750190476140645 C39.52467477091586,34.509897379531324 38.98589633234809,35.64653242172892 38.98589633234809,36.84656848530599 L38.98589633234809,38.200521228040074 C38.98589633234809,39.82145922990384 37.42475412397495,40.98503438718685 35.8713972015493,40.52186889037351 L33.45911801777339,39.80259795497165 C32.68976247084047,39.573198684928265 31.86918004594007,39.58061622390663 31.104097122615574,39.82388583386673 L29.122146922154577,40.45407667662063 C27.475642586114926,40.977607467094295 25.75045098952529,39.908067389656004 25.487112570144273,38.20052122804009 L25.21958330240694,36.465800653204994 C25.06912878971897,35.49021939832392 24.563254870922165,34.60472366869152 23.79927027730034,33.97964536481911 L21.84773453658029,32.38293430422996 C20.66218315261108,31.412937717346058 20.730993073262898,29.578953509399778 21.985896332348197,28.70052122804006 L23.534842992464256,27.616258565958816 C24.15606141381189,27.18140567101547 24.640876542421058,26.578930278231436 24.932769716948613,25.87906761889999 L26.30491297177236,22.5891248894786Z"/>
  </defs>
  <g opacity="1">
    <g opacity="1">
      <use xlink:href="#path-0" fill="url(#linearGradient-1)"/>
    </g>
    <g opacity="1">
      <use xlink:href="#rect-2" fill="url(#linearGradient-3)"/>
    </g>
    <g opacity="1">
      <g opacity="1">
        <use xlink:href="#ellipse-4" fill-opacity="0" stroke="rgb(255,255,255)" stroke-opacity="1" stroke-width="2.6" stroke-linecap="butt" stroke-linejoin="miter" mask="url(#mask-5)"/>
      </g>
      <g opacity="1">
        <use xlink:href="#path-6" fill-opacity="0" stroke="rgb(255,255,255)" stroke-opacity="1" stroke-width="1.3" stroke-linecap="butt" stroke-linejoin="miter"/>
      </g>
    </g>
  </g>
</svg>