<?xml version="1.0" encoding="utf-8"?>
<svg version="1.1" xmlns="http://www.w3.org/2000/svg" xmlns:xlink="http://www.w3.org/1999/xlink" height="13.200000000000045" width="17.651734137930816">
  <defs>
    <path id="path-0" opacity="1" fill-rule="evenodd" d="M0.6,0 L17.051734137930815,0 C17.382883152627212,-7.771561172376096e-16 17.651734137930816,0.2688509853036 17.651734137930816,0.6 C17.651734137930816,0.9311490146963999 17.382883152627212,1.2000000000000006 17.051734137930815,1.1999999999999997 L0.6,1.2 C0.2688509853036001,1.1999999999999997 1.1102230246251565e-16,0.9311490146963999 0,0.6 C0,0.2688509853036001 0.26885098530359985,1.1102230246251565e-16 0.6,0Z"/>
    <path id="path-1" opacity="1" fill-rule="evenodd" d="M-7.980636552924121e-18,12.6 C-6.885247415176011e-17,12.268629150101525 0.268629150101524,12 0.6,12 L11.301734137930817,12 C11.633104987829293,12 11.901734137930816,12.268629150101525 11.901734137930816,12.6 C11.901734137930816,12.931370849898476 11.633104987829293,13.2 11.301734137930817,13.2 L7.385394898593522,13.2 L0.6,13.2 C0.268629150101524,13.2 -6.885247415176011e-17,12.931370849898476 -7.980636552924121e-18,12.6Z"/>
    <path id="path-2" opacity="1" fill-rule="evenodd" d="M0.6,6 L14.301734137930817,6 C14.632883152627215,6 14.901734137930815,6.2688509853036 14.901734137930816,6.6 C14.901734144909259,6.931149002052345 14.63288316527127,7.199999993021557 14.30173415057487,7.199999999999999 L0.6,7.2 C0.2688509853036001,7.199999999999999 1.1102230246251565e-16,6.9311490146964 0,6.6 C0,6.2688509853036 0.26885098530359985,6 0.6,6Z"/>
  </defs>
  <g opacity="1">
    <g opacity="1">
      <use xlink:href="#path-0" fill="rgb(159,174,187)" fill-opacity="1"/>
    </g>
    <g opacity="1">
      <use xlink:href="#path-1" fill="rgb(159,174,187)" fill-opacity="1"/>
    </g>
    <g opacity="1">
      <use xlink:href="#path-2" fill="rgb(159,174,187)" fill-opacity="1"/>
    </g>
  </g>
</svg>