<?xml version="1.0" encoding="utf-8"?>
<svg version="1.1" xmlns="http://www.w3.org/2000/svg" xmlns:xlink="http://www.w3.org/1999/xlink" height="27.350186240852963" width="27.350186240852963">
  <defs>
    <path id="path-0" opacity="1" fill-rule="evenodd" d="M22.17509312042648,15.175093120426482 L22.17509312042648,21.17509312042648 C22.17509312042648,21.727377870257275 21.727377870257275,22.17509312042648 21.17509312042648,22.17509312042648 L6.175093120426482,22.17509312042648 C5.622808370595688,22.17509312042648 5.175093120426482,21.727377870257275 5.175093120426482,21.17509312042648 L5.175093120426482,8.175093120426482 C5.175093120426482,7.622808370595688 5.622808370595688,7.175093120426482 6.175093120426482,7.175093120426482 L10.675093120426482,7.175093120426482 "/>
    <path id="path-1" opacity="1" fill-rule="evenodd" d="M13.77509312042639,8.575093120426118 L20.77509312042639,8.575093120426118 C21.32700814492039,8.575093120426118 21.77509312042639,9.023178095932117 21.77509312042639,9.575093120426118 L21.77509312042639,9.775093120426117 C21.77509312042639,10.327008144920118 21.32700814492039,10.775093120426117 20.77509312042639,10.775093120426117 L13.77509312042639,10.775093120426117 C13.22317809593239,10.775093120426117 12.77509312042639,10.327008144920118 12.77509312042639,9.775093120426119 L12.77509312042639,9.575093120426118 C12.77509312042639,9.023178095932117 13.22317809593239,8.575093120426118 13.77509312042639,8.575093120426118Z"/>
    <path id="path-2" opacity="1" fill-rule="evenodd" d="M17.17509312042648,5.175093120426482 L17.37509312042648,5.175093120426482 C17.92700814492048,5.175093120426482 18.37509312042648,5.623178095932482 18.37509312042648,6.175093120426482 L18.37509312042648,13.175093120426482 C18.37509312042648,13.727008144920482 17.92700814492048,14.175093120426482 17.37509312042648,14.175093120426482 L17.17509312042648,14.175093120426482 C16.62317809593248,14.175093120426482 16.17509312042648,13.727008144920482 16.17509312042648,13.175093120426482 L16.17509312042648,6.175093120426482 C16.17509312042648,5.623178095932482 16.62317809593248,5.175093120426482 17.17509312042648,5.175093120426482Z"/>
  </defs>
  <g opacity="1">
    <g opacity="1">
      <use xlink:href="#path-0" fill-opacity="0" stroke="rgb(102,117,255)" stroke-opacity="1" stroke-width="2.2" stroke-linecap="butt" stroke-linejoin="miter"/>
    </g>
    <g opacity="1">
      <use xlink:href="#path-1" fill="rgb(102,117,255)" fill-opacity="1"/>
    </g>
    <g opacity="1">
      <use xlink:href="#path-2" fill="rgb(102,117,255)" fill-opacity="1"/>
    </g>
  </g>
</svg>