<?xml version="1.0" encoding="utf-8"?>
<svg version="1.1" xmlns="http://www.w3.org/2000/svg" xmlns:xlink="http://www.w3.org/1999/xlink" height="18.5" width="19">
  <defs>
    <path id="path-0" opacity="1" fill-rule="evenodd" d="M0.9642857142859711,3.571428571428612 L18.03571428571403,3.571428571428612 C18.567918059333387,3.571428571428612 19,4.003510512095227 19,4.535714285714583 C19,5.067918059333939 18.567918059333387,5.500000000000554 18.03571428571403,5.500000000000554 L0.9642857142859711,5.500000000000554 C0.4320819406666152,5.500000000000554 1.1102230246251565e-16,5.067918059333939 0,4.535714285714583 C0,4.003510512095227 0.43208194066661487,3.571428571428612 0.9642857142859711,3.571428571428612Z"/>
    <path id="path-1" opacity="1" fill-rule="evenodd" d="M4.714285714285666,3.571428571428612 L14.285714285714253,3.571428571428612 C15.389544334702252,3.571428571428612 16.285714285714253,4.467598522440612 16.285714285714253,5.571428571428612 L16.285714285714253,16.50000000000003 C16.285714285714253,17.60383004898803 15.389544334702252,18.50000000000003 14.285714285714253,18.50000000000003 L4.714285714285666,18.50000000000003 C3.610455665297666,18.50000000000003 2.7142857142856656,17.60383004898803 2.7142857142856656,16.50000000000003 L2.7142857142856656,5.571428571428612 C2.7142857142856656,4.467598522440612 3.610455665297665,3.571428571428612 4.714285714285666,3.571428571428612Z"/>
    <mask id="mask-2" maskUnits="userSpaceOnUse" maskContentUnits="userSpaceOnUse">
      <rect opacity="1" x="0" y="0" width="19" height="18.5" fill="black"/>
      <use xlink:href="#path-1" fill="white"/>
    </mask>
    <path id="path-3" opacity="1" fill-rule="evenodd" d="M6.428571428571408,0 L12.571428571428147,0 C13.123343595922252,2.220446049250313e-16 13.571428571428338,0.4480849755060857 13.571428571428338,1.0000000000001912 C13.571428571428338,1.551915024494297 13.123343595922252,2.0000000000003824 12.571428571428147,2.000000000000383 L6.428571428571408,2.0000000000003824 C5.876656404077304,2.000000000000383 5.428571428571217,1.551915024494297 5.428571428571217,1.0000000000001912 C5.428571428571217,0.44808497550608584 5.876656404077303,2.220446049250313e-16 6.428571428571408,0Z"/>
  </defs>
  <g opacity="1">
    <g opacity="1">
      <use xlink:href="#path-0" fill="rgb(255,102,148)" fill-opacity="1"/>
    </g>
    <g opacity="1">
      <use xlink:href="#path-1" fill-opacity="0" stroke="rgb(255,102,148)" stroke-opacity="1" stroke-width="4" mask="url(#mask-2)"/>
    </g>
    <g opacity="1">
      <use xlink:href="#path-3" fill="rgb(255,102,148)" fill-opacity="1"/>
    </g>
  </g>
</svg>