<svg xmlns="http://www.w3.org/2000/svg" viewBox="0 0 171.49 161.83"><defs><style>.cls-1{fill:#defcff;}.cls-2{fill:none;stroke:#2161ff;stroke-linecap:round;stroke-linejoin:round;stroke-width:12.83px;}</style></defs><title>Asset 5</title><g id="Layer_2" data-name="Layer 2"><g id="Layer_1-2" data-name="Layer 1"><rect class="cls-1" x="29.07" y="32.41" width="98" height="98.23"/><path class="cls-2" d="M71.25,13,14.39,71.37A27.41,27.41,0,0,0,6.93,90.11l-.51,39.22c-.19,14.34,9.94,26.09,22.5,26.09H41.57c12.43,0,22.5-11.51,22.5-25.7h0c0-14.19,10.07-25.7,22.5-25.7h0c12.43,0,22.5,11.51,22.5,25.7h0c0,14.19,10.07,25.7,22.5,25.7h11c12.43,0,22.5-11.51,22.5-25.7V88.27a27.4,27.4,0,0,0-7.7-19.36L101.09,12.76C92.52,4.21,79.71,4.31,71.25,13Z"/></g></g></svg>