<?xml version="1.0" encoding="utf-8"?>
<svg version="1.1" xmlns="http://www.w3.org/2000/svg" xmlns:xlink="http://www.w3.org/1999/xlink" height="94.70463010947844" width="172.70463010947879">
  <defs>
    <path id="path-0" opacity="1" fill-rule="evenodd" d="M15.352315054739393,22.352315054739222 L54.3523350547398,22.352315054739222 C57.11191017720979,22.352315054739222 59.3523350547398,24.59273993226922 59.3523350547398,27.352315054739222 L59.3523350547398,34.35233505473923 C59.3523350547398,37.111910177209225 57.11191017720979,39.35233505473923 54.3523350547398,39.35233505473923 L15.352315054739393,39.35233505473923 C12.592739932269392,39.35233505473923 10.352315054739393,37.111910177209225 10.352315054739393,34.35233505473923 L10.352315054739393,27.352315054739222 C10.352315054739393,24.59273993226922 12.592739932269392,22.352315054739222 15.352315054739393,22.352315054739222Z"/>
    <path id="path-1" opacity="1" fill-rule="evenodd" d="M15.576002933996445,25.352318584150964 L54.12864717548287,25.352318584150964 C55.23247852309446,25.352318584150964 56.12864952842405,26.248489589480553 56.12864952842404,27.35232093709214 C56.12864952842405,28.456152284703727 55.23247852309446,29.35232329003332 54.12864717548287,29.35232329003332 L15.576002933996445,29.35232329003332 C14.472171586384858,29.35232329003332 13.576000581055268,28.45615228470373 13.576000581055268,27.35232093709214 C13.576000581055268,26.248489589480556 14.472171586384858,25.352318584150964 15.576002933996445,25.352318584150964Z"/>
    <path id="path-2" opacity="1" fill-rule="evenodd" d="M15.576002933996445,32.35232681944507 L54.12864717548287,32.35232681944507 C55.23247852309446,32.35232681944507 56.12864952842405,33.24849782477466 56.12864952842404,34.35232917238625 C56.12864952842405,35.45616051999783 55.23247852309446,36.35233152532742 54.12864717548287,36.35233152532742 L15.576002933996445,36.35233152532742 C14.472171586384858,36.35233152532742 13.576000581055268,35.45616051999783 13.576000581055268,34.35232917238625 C13.576000581055268,33.24849782477466 14.472171586384858,32.35232681944507 15.576002933996445,32.35232681944507Z"/>
    <path id="path-3" opacity="1" fill-rule="evenodd" d="M15.352315054739393,44.35231505473922 L81.35231505473939,44.35231505473922 C84.11189017720939,44.35231505473922 86.35231505473939,46.592739932269225 86.35231505473939,49.35231505473922 L86.35231505473939,56.35231505473922 C86.35231505473939,59.11189017720922 84.11189017720939,61.35231505473922 81.35231505473939,61.35231505473922 L15.352315054739393,61.35231505473922 C12.592739932269392,61.35231505473922 10.352315054739393,59.11189017720922 10.352315054739393,56.35231505473922 L10.352315054739393,49.35231505473922 C10.352315054739393,46.592739932269225 12.592739932269392,44.35231505473922 15.352315054739393,44.35231505473922Z"/>
    <path id="path-4" opacity="1" fill-rule="evenodd" d="M119.47908238104407,12.839906058734641 L153.58177205104693,12.839906058734641 C156.3413471735169,12.839906058734641 158.58177205104693,15.080330936264641 158.58177205104693,17.83990605873464 L158.58177205104693,33.517598821966885 C158.58177205104693,36.27717394443688 156.3413471735169,38.517598821966885 153.58177205104693,38.517598821966885 L119.47908238104407,38.517598821966885 C116.71950725857407,38.517598821966885 114.47908238104407,36.27717394443688 114.47908238104407,33.517598821966885 L114.47908238104407,17.83990605873464 C114.47908238104407,15.080330936264641 116.71950725857407,12.839906058734641 119.47908238104407,12.839906058734641Z"/>
    <path id="path-5" opacity="1" fill-rule="evenodd" d="M133.88762430939792,20.6640777497689 C132.55436326409367,19.879148573357334 130.87295221946113,20.84041604848522 130.87295221946113,22.387574355481625 L130.87295221946113,30.02615006001114 C130.87295221946113,31.516142983815 132.44375900122742,32.48295125148101 133.7739793585752,31.811689220763405 L140.76035274413434,28.286192741749783 C142.17303254853704,27.573319638418383 142.23759077729596,25.57994349548686 140.87399769495707,24.777156975284793 L133.88762430939792,20.6640777497689Z"/>
    <path id="path-6" opacity="1" fill-rule="evenodd" d="M20.352315054739393,47.35231505473922 L29.352315054739393,47.35231505473922 C32.11189017720939,47.35231505473922 34.35231505473939,49.592739932269225 34.35231505473939,52.35231505473922 L34.35231505473939,53.35231505473922 C34.35231505473939,56.11189017720922 32.11189017720939,58.35231505473922 29.352315054739393,58.35231505473922 L20.352315054739393,58.35231505473922 C17.592739932269392,58.35231505473922 15.352315054739393,56.11189017720922 15.352315054739393,53.35231505473922 L15.352315054739393,52.35231505473922 C15.352315054739393,49.592739932269225 17.592739932269392,47.35231505473922 20.352315054739393,47.35231505473922Z"/>
    <path id="path-7" opacity="1" fill-rule="evenodd" d="M42.35231505473939,47.35231505473922 L76.35231505473939,47.35231505473922 C79.11189017720939,47.35231505473922 81.35231505473939,49.592739932269225 81.35231505473939,52.35231505473922 L81.35231505473939,53.35231505473922 C81.35231505473939,56.11189017720922 79.11189017720939,58.35231505473922 76.35231505473939,58.35231505473922 L42.35231505473939,58.35231505473922 C39.592739932269396,58.35231505473922 37.35231505473939,56.11189017720922 37.35231505473939,53.35231505473922 L37.35231505473939,52.35231505473922 C37.35231505473939,49.592739932269225 39.59273993226939,47.35231505473922 42.35231505473939,47.35231505473922Z"/>
    <path id="path-8" opacity="1" fill-rule="evenodd" d="M15.352315054739393,66.35231505473922 L81.35231505473939,66.35231505473922 C84.11189017720939,66.35231505473922 86.35231505473939,68.59273993226923 86.35231505473939,71.35231505473922 L86.35231505473939,78.35231505473922 C86.35231505473939,81.11189017720922 84.11189017720939,83.35231505473922 81.35231505473939,83.35231505473922 L15.352315054739393,83.35231505473922 C12.592739932269392,83.35231505473922 10.352315054739393,81.11189017720922 10.352315054739393,78.35231505473922 L10.352315054739393,71.35231505473922 C10.352315054739393,68.59273993226923 12.592739932269392,66.35231505473922 15.352315054739393,66.35231505473922Z"/>
    <path id="path-9" opacity="1" fill-rule="evenodd" d="M67.35231505473939,69.35231505473922 L76.35231505473939,69.35231505473922 C79.11189017720939,69.35231505473922 81.35231505473939,71.59273993226923 81.35231505473939,74.35231505473922 L81.35231505473939,75.35231505473922 C81.35231505473939,78.11189017720922 79.11189017720939,80.35231505473922 76.35231505473939,80.35231505473922 L67.35231505473939,80.35231505473922 C64.5927399322694,80.35231505473922 62.35231505473939,78.11189017720922 62.35231505473939,75.35231505473922 L62.35231505473939,74.35231505473922 C62.35231505473939,71.59273993226923 64.5927399322694,69.35231505473922 67.35231505473939,69.35231505473922Z"/>
    <path id="path-10" opacity="1" fill-rule="evenodd" d="M17.352315054739393,69.35231505473922 L57.35231505473939,69.35231505473922 C58.456145103727394,69.35231505473922 59.35231505473939,70.24848500575122 59.35231505473939,71.35231505473922 C59.35231505473939,72.45614510372722 58.456145103727394,73.35231505473922 57.35231505473939,73.35231505473922 L17.352315054739393,73.35231505473922 C16.24848500575139,73.35231505473922 15.352315054739393,72.45614510372722 15.352315054739393,71.35231505473922 C15.352315054739393,70.24848500575122 16.24848500575139,69.35231505473922 17.352315054739393,69.35231505473922Z"/>
    <path id="path-11" opacity="1" fill-rule="evenodd" d="M17.352315054739393,76.35231505473922 L57.35231505473939,76.35231505473922 C58.456145103727394,76.35231505473922 59.35231505473939,77.24848500575122 59.35231505473939,78.35231505473922 C59.35231505473939,79.45614510372722 58.456145103727394,80.35231505473922 57.35231505473939,80.35231505473922 L17.352315054739393,80.35231505473922 C16.24848500575139,80.35231505473922 15.352315054739393,79.45614510372722 15.352315054739393,78.35231505473922 C15.352315054739393,77.24848500575122 16.24848500575139,76.35231505473922 17.352315054739393,76.35231505473922Z"/>
    <ellipse id="ellipse-12" opacity="1" rx="8.5" ry="8.5" cx="77.85231505473939" cy="30.852315054739222"/>
    <path id="path-13" opacity="1" fill-rule="evenodd" d="M7.3523150547393925,8.352315054739222 L90.35231505473939,8.352315054739222 C93.11189017720939,8.352315054739222 95.35231505473939,10.592739932269222 95.35231505473939,13.352315054739222 L95.35231505473939,87.35231505473922 C95.35231505473939,90.11189017720922 93.11189017720939,92.35231505473922 90.35231505473939,92.35231505473922 L7.3523150547393925,92.35231505473922 C4.592739932269393,92.35231505473922 2.3523150547393934,90.11189017720922 2.3523150547393925,87.35231505473922 L2.3523150547393925,13.352315054739222 C2.3523150547393925,10.592739932269222 4.592739932269391,8.352315054739222 7.3523150547393925,8.352315054739222Z"/>
    <path id="path-14" opacity="1" fill-rule="evenodd" d="M111.35231505473939,60.35231505473922 C111.35231505473939,59.247745555077636 112.24774555507781,58.35231505473922 113.35231505473939,58.35231505473922 L152.3523150547394,58.35231505473922 C153.45688455440097,58.35231505473922 154.3523150547394,59.247745555077636 154.3523150547394,60.35231505473922 L154.3523150547394,88.35231505473922 C154.3523150547394,89.4568845544008 153.45688455440097,90.35231505473922 152.3523150547394,90.35231505473922 L113.35231505473939,90.35231505473922 C112.24774555507781,90.35231505473922 111.35231505473939,89.4568845544008 111.35231505473939,88.35231505473922 L111.35231505473939,60.35231505473922Z"/>
    <path id="path-15" opacity="1" fill-rule="evenodd" d="M125.85231505473939,67.35231505473922 L134.8523150547394,67.35231505473922 C135.6801875914804,67.35231505473922 136.3523150547394,68.02444251799822 136.3523150547394,68.85231505473922 C136.3523150547394,69.68018759148022 135.6801875914804,70.35231505473922 134.8523150547394,70.35231505473922 L125.85231505473939,70.35231505473922 C125.0244425179984,70.35231505473922 124.35231505473939,69.68018759148022 124.35231505473939,68.85231505473922 C124.35231505473939,68.02444251799822 125.0244425179984,67.35231505473922 125.85231505473939,67.35231505473922Z"/>
    <path id="path-16" opacity="1" fill-rule="evenodd" d="M118.85231505473939,65.35231505473922 L124.85231505473939,65.35231505473922 C125.68018759148039,65.35231505473922 126.35231505473939,66.02444251799822 126.35231505473939,66.85231505473922 C126.35231505473939,67.68018759148022 125.68018759148039,68.35231505473922 124.85231505473939,68.35231505473922 L118.85231505473939,68.35231505473922 C118.0244425179984,68.35231505473922 117.35231505473939,67.68018759148022 117.35231505473939,66.85231505473922 C117.35231505473939,66.02444251799822 118.0244425179984,65.35231505473922 118.85231505473939,65.35231505473922Z"/>
    <path id="path-17" opacity="1" fill-rule="evenodd" d="M111.39638003903355,80.59741982151583 C111.40365380640112,78.98718802957653 113.2137611267792,78.04529092945984 114.53665052522172,78.96336661857929 L125.69794950626516,86.70922750880462 C127.30782323229141,87.82646824877646 126.51723006950984,90.35231505473897 124.55765861513456,90.35231505473897 L113.3613698950615,90.35231505473897 C112.25327060036786,90.35231505473897 111.356384825452,89.45136870108364 111.36139030000395,88.34328071174116 L111.39638003903355,80.59741982151583Z"/>
    <path id="path-18" opacity="1" fill-rule="evenodd" d="M134.02461906663447,74.27300812913755 C134.96257970651106,73.38211023508161 136.36598527020843,73.19279105906988 137.50648609532402,73.80330484884182 L154.35848063965523,82.82423217121637 L154.3539517357727,88.35395307678058 C154.35304760504593,89.45788257296564 153.45788227298354,90.35231505473898 152.3539524065519,90.352315054739 L117.09590353892372,90.35231505473935 L134.02461906663447,74.27300812913755Z"/>
    <ellipse id="ellipse-19" opacity="1" rx="2" ry="2" cx="168.3523150547394" cy="52.35231505473922"/>
    <path id="path-20" opacity="1" fill-rule="evenodd" d="M105.35231505473939,3.852315054739222 L108.35231505473939,3.852315054739222 C108.6282725669864,3.852315054739222 108.85231505473939,4.076357542492222 108.85231505473939,4.352315054739222 C108.85231505473939,4.628272566986222 108.6282725669864,4.852315054739222 108.35231505473939,4.852315054739222 L105.35231505473939,4.852315054739222 C105.07635754249239,4.852315054739222 104.85231505473939,4.628272566986222 104.85231505473939,4.352315054739222 C104.85231505473939,4.076357542492222 105.07635754249239,3.852315054739222 105.35231505473939,3.852315054739222Z"/>
    <path id="path-21" opacity="1" fill-rule="evenodd" d="M105.35231505473939,3.852315054739222 L108.35231505473939,3.852315054739222 C108.6282725669864,3.852315054739222 108.85231505473939,4.076357542492222 108.85231505473939,4.352315054739222 C108.85231505473939,4.628272566986222 108.6282725669864,4.852315054739222 108.35231505473939,4.852315054739222 L105.35231505473939,4.852315054739222 C105.07635754249239,4.852315054739222 104.85231505473939,4.628272566986222 104.85231505473939,4.352315054739222 C104.85231505473939,4.076357542492222 105.07635754249239,3.852315054739222 105.35231505473939,3.852315054739222Z"/>
  </defs>
  <g opacity="1">
    <g opacity="1">
      <use xlink:href="#path-0" fill="rgb(177,204,255)" fill-opacity="1"/>
    </g>
    <g opacity="1">
      <use xlink:href="#path-1" fill="rgb(255,255,255)" fill-opacity="1"/>
    </g>
    <g opacity="1">
      <use xlink:href="#path-2" fill="rgb(255,255,255)" fill-opacity="1"/>
    </g>
    <g opacity="1">
      <use xlink:href="#path-3" fill="rgb(198,218,255)" fill-opacity="1"/>
    </g>
    <g transform="translate(136.5304272160455, 25.678752440350763) rotate(16.000005721026675) translate(-136.5304272160455, -25.678752440350763)" opacity="1">
      <use xlink:href="#path-4" fill="rgb(224,235,255)" fill-opacity="1"/>
    </g>
    <g transform="translate(136.86855744782721, 26.118005246829405) rotate(16.000005721026675) translate(-136.86855744782721, -26.118005246829405)" opacity="1">
      <use xlink:href="#path-5" fill="rgb(245,251,255)" fill-opacity="1"/>
    </g>
    <g opacity="1">
      <use xlink:href="#path-6" fill="rgb(255,255,255)" fill-opacity="1"/>
    </g>
    <g opacity="1">
      <use xlink:href="#path-7" fill="rgb(255,255,255)" fill-opacity="1"/>
    </g>
    <g opacity="1">
      <use xlink:href="#path-8" fill="rgb(177,204,255)" fill-opacity="1"/>
    </g>
    <g opacity="1">
      <use xlink:href="#path-9" fill="rgb(255,255,255)" fill-opacity="1"/>
    </g>
    <g opacity="1">
      <use xlink:href="#path-10" fill="rgb(255,255,255)" fill-opacity="1"/>
    </g>
    <g opacity="1">
      <use xlink:href="#path-11" fill="rgb(255,255,255)" fill-opacity="1"/>
    </g>
    <g opacity="1">
      <use xlink:href="#ellipse-12" fill="rgb(198,218,255)" fill-opacity="1"/>
    </g>
    <g opacity="1">
      <use xlink:href="#path-13" fill="rgb(236,238,255)" fill-opacity="0.46"/>
    </g>
    <g opacity="1">
      <use xlink:href="#path-14" fill="rgb(240,241,255)" fill-opacity="1"/>
    </g>
    <g opacity="1">
      <use xlink:href="#path-15" fill="rgb(255,255,255)" fill-opacity="1"/>
    </g>
    <g opacity="1">
      <use xlink:href="#path-16" fill="rgb(255,255,255)" fill-opacity="1"/>
    </g>
    <g opacity="1">
      <use xlink:href="#path-17" fill="rgb(236,227,255)" fill-opacity="1"/>
    </g>
    <g opacity="1">
      <use xlink:href="#path-18" fill="rgb(215,219,255)" fill-opacity="1"/>
    </g>
    <g opacity="1">
      <use xlink:href="#ellipse-19" fill-opacity="0" stroke="rgb(199,233,255)" stroke-opacity="1" stroke-width="1"/>
    </g>
    <g opacity="1">
      <use xlink:href="#path-20" fill="rgb(231,204,255)" fill-opacity="1"/>
    </g>
    <g transform="translate(106.85231505473939, 4.352315054739222) rotate(90.00003218077504) translate(-106.85231505473939, -4.352315054739222)" opacity="1">
      <use xlink:href="#path-21" fill="rgb(231,204,255)" fill-opacity="1"/>
    </g>
  </g>
</svg>